<?xml version="1.0" standalone="no"?>
<!DOCTYPE svg PUBLIC "-//W3C//DTD SVG 20010904//EN"
 "http://www.w3.org/TR/2001/REC-SVG-20010904/DTD/svg10.dtd">
<svg version="1.0" xmlns="http://www.w3.org/2000/svg"
 width="500.000000pt" height="500.000000pt" viewBox="0 0 500.000000 500.000000"
 preserveAspectRatio="xMidYMid meet">
<metadata>
Created by potrace 1.14, written by Peter Selinger 2001-2017
</metadata>
<g transform="translate(0.000000,500.000000) scale(0.100000,-0.100000)"
fill="#000000" stroke="none">
<path d="M2277 4673 c-8 -8 -9 -65 -2 -85 4 -10 27 -12 93 -10 151 6 374 -22
588 -75 18 -4 24 2 37 41 l16 46 -41 10 c-96 26 -222 50 -338 65 -126 15 -341
21 -353 8z"/>
<path d="M1860 4604 c-266 -71 -544 -212 -759 -384 -168 -135 -320 -300 -441
-480 -60 -90 -140 -230 -140 -247 0 -9 62 -43 80 -43 5 0 24 28 41 62 150 297
435 599 733 776 164 98 378 187 554 232 44 11 44 11 37 48 -11 61 -12 61 -105
36z"/>
<path d="M3272 4436 l-21 -44 92 -48 c169 -86 383 -248 517 -390 452 -479 641
-1149 509 -1799 -46 -223 -154 -485 -279 -674 l-62 -95 33 -28 c19 -15 39 -26
44 -25 31 9 191 292 256 452 364 907 49 1956 -756 2517 -72 51 -291 178 -305
178 -3 0 -16 -20 -28 -44z"/>
<path d="M2165 4455 c-207 -29 -383 -81 -560 -164 -139 -66 -196 -103 -186
-120 7 -11 28 -3 103 37 242 130 492 204 753 221 231 16 476 -12 675 -75 87
-28 100 -29 100 -10 0 22 -132 63 -330 101 -119 23 -425 29 -555 10z"/>
<path d="M2145 4324 c-164 -25 -425 -103 -425 -126 0 -5 -5 -6 -10 -3 -14 9
-204 -93 -314 -168 -140 -96 -312 -268 -439 -439 l-27 -37 67 -46 68 -46 15
23 c36 54 117 149 188 222 221 225 507 380 822 446 52 11 109 20 125 20 49 1
58 12 49 61 -4 24 -6 59 -5 77 3 37 11 35 -114 16z"/>
<path d="M3308 4218 c-3 -7 22 -28 54 -48 127 -77 248 -170 348 -268 61 -60
110 -100 118 -97 20 7 -13 50 -106 135 -101 94 -219 186 -312 244 -78 48 -96
54 -102 34z"/>
<path d="M967 3806 c-419 -485 -561 -1177 -371 -1799 21 -67 31 -87 43 -84 18
4 19 0 -14 114 -59 203 -70 282 -70 523 0 242 6 299 56 489 69 265 201 518
373 721 31 36 54 69 53 74 -7 23 -26 13 -70 -38z"/>
<path d="M3985 3581 c-3 -6 17 -49 45 -97 143 -251 225 -541 237 -844 29 -743
-385 -1432 -1054 -1752 -68 -33 -123 -63 -123 -68 0 -23 26 -18 107 20 276
129 502 304 687 534 349 432 492 1011 385 1563 -38 196 -128 436 -224 594 -36
58 -48 68 -60 50z"/>
<path d="M1211 3448 c-125 -171 -230 -419 -266 -633 -20 -117 -23 -330 -5
-455 6 -47 12 -86 13 -87 1 -1 24 3 51 9 47 10 48 11 42 42 -15 70 -26 256
-21 326 24 295 117 538 296 780 l26 35 -38 33 -37 33 -61 -83z"/>
<path d="M1970 3486 c-197 -53 -304 -218 -304 -471 0 -90 4 -120 23 -167 42
-109 139 -189 266 -222 121 -31 319 -23 329 13 3 9 10 52 16 96 21 150 40 185
98 185 19 0 23 5 20 22 -3 21 -13 24 -148 45 -111 17 -146 19 -152 10 -14 -22
-8 -34 21 -40 61 -12 70 -43 51 -167 -21 -131 -13 -120 -89 -120 -145 0 -263
73 -296 182 -44 149 12 425 105 515 50 49 96 67 170 67 125 -1 189 -44 198
-134 4 -44 7 -50 28 -50 66 0 102 41 90 105 -9 46 -65 88 -154 115 -80 25
-211 33 -272 16z"/>
<path d="M2837 3209 c-98 -15 -171 -81 -192 -174 -22 -91 0 -168 65 -230 17
-16 72 -62 123 -100 143 -109 170 -184 93 -261 -59 -59 -161 -53 -223 12 -35
38 -47 79 -41 149 3 39 1 45 -17 46 -67 4 -98 -9 -120 -51 -56 -109 43 -215
239 -257 208 -43 369 62 369 242 1 91 -35 144 -158 236 -103 76 -122 93 -150
134 -28 43 -31 71 -11 120 19 45 57 69 108 67 75 -3 117 -52 121 -140 2 -53
10 -62 50 -62 114 0 149 116 59 192 -65 55 -215 91 -315 77z"/>
<path d="M707 3068 c-42 -135 -59 -253 -64 -443 -6 -211 7 -332 53 -510 64
-246 201 -512 353 -684 31 -35 66 -75 78 -90 l22 -26 55 55 c31 30 56 57 56
61 0 4 -32 44 -72 90 -338 392 -469 953 -338 1444 12 44 23 86 23 94 1 9 -24
22 -67 37 -39 13 -73 24 -76 24 -4 0 -14 -24 -23 -52z"/>
<path d="M336 2923 c-31 -142 -36 -462 -11 -643 53 -376 216 -754 450 -1040
103 -125 326 -341 353 -340 4 0 19 18 34 39 l27 38 -51 39 c-83 62 -242 228
-321 332 -297 396 -442 876 -407 1350 6 79 15 165 20 190 4 26 8 48 7 48 -1 1
-23 4 -49 8 -45 7 -46 6 -52 -21z"/>
<path d="M1780 2124 c0 -50 -2 -55 -17 -49 -38 17 -83 17 -108 1 -50 -33 -55
-147 -9 -193 27 -27 79 -31 106 -7 16 16 18 16 24 0 3 -9 17 -16 30 -16 l24 0
0 160 0 160 -25 0 c-24 0 -25 -3 -25 -56z m-34 -82 c46 -30 37 -126 -13 -138
-37 -10 -63 20 -63 72 0 33 5 46 22 58 25 18 37 19 54 8z"/>
<path d="M3738 2173 c-2 -5 -3 -75 -3 -158 l0 -150 27 -3 27 -3 3 83 c3 78 4
83 30 98 25 13 29 13 45 -2 13 -13 17 -36 17 -95 1 -77 1 -78 28 -81 l27 -3
-2 94 c-2 77 -6 99 -21 116 -23 25 -67 27 -101 5 l-25 -16 0 61 c0 58 -1 61
-24 61 -14 0 -26 -3 -28 -7z"/>
<path d="M1166 2162 c-69 -9 -106 -62 -106 -154 0 -62 25 -117 60 -135 37 -19
84 -16 114 8 l26 20 0 -21 c0 -17 5 -21 27 -18 27 3 27 4 28 76 0 41 -2 77 -5
81 -3 4 -31 7 -62 7 -54 0 -58 -2 -58 -23 0 -20 5 -23 35 -23 38 0 47 -20 22
-54 -14 -18 -74 -25 -97 -11 -23 14 -40 73 -34 117 10 76 87 115 134 68 17
-17 24 -18 41 -10 54 29 -40 84 -125 72z"/>
<path d="M2623 2161 c-39 -10 -63 -38 -63 -74 0 -50 23 -74 90 -93 68 -19 87
-46 52 -74 -25 -21 -73 -15 -102 12 -21 19 -22 19 -35 2 -19 -26 -15 -36 26
-56 40 -21 103 -23 139 -5 34 17 52 72 36 112 -10 25 -23 34 -76 51 -71 23
-92 43 -71 68 16 20 57 21 92 2 23 -12 27 -11 39 7 10 17 10 23 -6 34 -10 7
-23 13 -28 14 -56 4 -74 4 -93 0z"/>
<path d="M2407 2133 c-4 -3 -7 -15 -7 -25 0 -11 -7 -18 -20 -18 -26 0 -27 -36
-1 -43 17 -4 20 -14 20 -77 0 -87 15 -110 72 -110 21 0 40 4 43 9 10 16 -6 42
-22 36 -29 -11 -42 15 -42 81 l0 64 34 0 c29 0 33 3 29 20 -4 14 -14 20 -34
20 -24 0 -29 4 -29 25 0 18 -5 25 -18 25 -10 0 -22 -3 -25 -7z"/>
<path d="M2038 2104 c-2 -12 -16 -16 -56 -18 -40 -1 -58 -6 -68 -21 -19 -26
-18 -74 3 -98 17 -18 17 -19 0 -28 -19 -11 -22 -40 -6 -56 8 -8 5 -14 -10 -22
-31 -17 -28 -64 4 -81 33 -18 130 -15 159 4 32 20 39 73 14 98 -14 14 -77 26
-90 16 -2 -1 -13 4 -26 11 -30 16 -19 31 22 31 65 0 104 57 76 110 -7 13 -6
19 5 24 20 7 19 32 -1 40 -22 8 -22 8 -26 -10z m-20 -92 c-2 -23 -8 -27 -33
-27 -24 0 -31 5 -33 24 -5 32 23 54 50 40 13 -7 18 -19 16 -37z m20 -174 c5
-24 -34 -41 -74 -33 -24 4 -34 11 -34 24 0 27 10 32 60 29 33 -2 46 -8 48 -20z"/>
<path d="M1414 2080 c-27 -11 -37 -27 -30 -46 5 -13 9 -13 36 1 41 21 75 16
75 -10 0 -16 -11 -23 -48 -32 -27 -6 -55 -17 -63 -24 -20 -16 -18 -73 4 -92
24 -22 70 -22 93 -1 17 15 19 15 34 0 23 -23 65 -21 65 3 0 10 -7 21 -15 25
-11 4 -15 22 -15 76 0 57 -4 74 -20 90 -21 21 -77 26 -116 10z m75 -166 c-7
-8 -24 -14 -38 -12 -20 2 -26 9 -26 27 0 19 8 27 35 36 33 11 35 11 38 -12 2
-13 -2 -31 -9 -39z"/>
<path d="M2165 2068 c-46 -41 -50 -137 -7 -181 13 -12 38 -21 69 -24 39 -4 53
-1 76 17 25 20 27 24 14 37 -13 13 -18 13 -41 -2 -31 -21 -71 -14 -86 15 -6
11 -9 24 -6 28 2 4 36 7 75 6 l71 0 0 36 c0 55 -36 90 -94 90 -32 0 -52 -6
-71 -22z m103 -30 c27 -27 14 -43 -34 -41 -56 2 -62 7 -39 33 20 22 55 26 73
8z"/>
<path d="M2873 2080 c-62 -25 -76 -139 -24 -191 38 -37 103 -41 145 -8 24 19
26 23 13 36 -13 13 -18 13 -41 -2 -16 -11 -35 -15 -51 -11 -24 6 -50 40 -41
54 2 4 36 7 75 6 l71 -1 0 39 c0 72 -70 109 -147 78z m92 -40 c27 -29 9 -48
-43 -47 -54 2 -67 13 -44 37 30 31 64 35 87 10z"/>
<path d="M3098 2074 c-31 -16 -34 -26 -15 -42 8 -7 18 -6 31 4 25 18 60 18 75
0 15 -18 0 -30 -58 -47 -23 -7 -50 -23 -57 -35 -18 -27 -9 -70 16 -84 28 -15
76 -12 90 5 12 14 15 14 30 0 20 -18 56 -20 66 -3 4 6 0 16 -9 23 -11 8 -16
31 -18 79 -3 88 -23 116 -82 116 -23 -1 -54 -8 -69 -16z m98 -118 c10 -26 -15
-56 -45 -56 -62 0 -36 65 27 69 7 1 15 -5 18 -13z"/>
<path d="M3320 1975 l0 -115 25 0 c24 0 25 3 25 63 0 74 16 111 50 116 26 3
40 17 40 39 0 20 -48 14 -70 -10 l-20 -22 0 22 c0 17 -6 22 -25 22 l-25 0 0
-115z"/>
<path d="M3541 2076 c-32 -18 -50 -53 -51 -99 0 -72 40 -116 107 -117 31 0 49
7 70 25 27 24 28 25 9 40 -18 14 -22 13 -42 -6 -48 -45 -108 13 -88 84 13 42
54 59 83 33 16 -15 23 -16 42 -5 l23 12 -28 23 c-31 27 -86 31 -125 10z"/>
<path d="M786 1601 c-3 -5 16 -42 43 -82 297 -453 794 -764 1334 -834 159 -20
307 -20 307 0 0 11 -13 15 -54 15 -163 0 -424 43 -585 96 -129 43 -361 154
-456 220 -204 139 -405 345 -538 552 -27 41 -41 50 -51 33z"/>
<path d="M1339 1257 l-51 -61 33 -29 c114 -95 369 -232 534 -286 213 -70 502
-106 683 -84 52 6 52 6 48 37 -3 17 -8 52 -11 79 l-6 47 -151 0 c-361 0 -661
96 -950 303 l-77 56 -52 -62z"/>
<path d="M3465 864 c-101 -65 -293 -157 -417 -199 -459 -155 -974 -135 -1421
57 -65 27 -120 48 -121 47 -8 -10 -36 -69 -36 -77 0 -14 148 -79 279 -122 255
-85 525 -120 788 -102 286 19 523 79 760 192 147 70 293 157 293 174 0 6 -12
26 -27 43 l-28 32 -70 -45z"/>
</g>
</svg>
